<svg width="60" height="56" viewBox="0 0 60 56" fill="none" xmlns="http://www.w3.org/2000/svg">
<path fill-rule="evenodd" clip-rule="evenodd" d="M6.75 15.5555C6.75 6.96444 13.4657 0 21.75 0H45C53.2843 0 60 6.96446 60 15.5556V40.4444C60 49.0355 53.2843 56 45 56H3C1.89752 56 0.883861 55.3729 0.360126 54.3668C-0.163609 53.3607 -0.113026 52.1378 0.49186 51.182L5.27444 43.6243C6.23712 42.103 6.75 40.3231 6.75 38.5035V15.5555ZM21.75 6.22222C16.7794 6.22222 12.75 10.4009 12.75 15.5555V38.5035C12.75 41.5362 11.8952 44.5027 10.2907 47.0382L8.55706 49.7778H45C49.9706 49.7778 54 45.5991 54 40.4444V15.5556C54 10.4009 49.9706 6.22222 45 6.22222H21.75Z" fill="white"/>
</svg>
